<svg version="1.1" id="Layer_1" xmlns="http://www.w3.org/2000/svg" xmlns:xlink="http://www.w3.org/1999/xlink" x="0px" y="0px"
	 width="100%" viewBox="0 0 1200 1200" enable-background="new 0 0 1200 1200" xml:space="preserve">
<path fill="#A8AEBA" opacity="1.000000" stroke="none" 
	d="
M697.000000,1201.000000 
	C464.666656,1201.000000 232.833328,1201.000000 1.000000,1201.000000 
	C1.000000,801.000000 1.000000,401.000000 1.000000,1.000000 
	C401.000000,1.000000 801.000000,1.000000 1201.000000,1.000000 
	C1201.000000,401.000000 1201.000000,801.000000 1201.000000,1201.000000 
	C1033.166626,1201.000000 865.333313,1201.000000 697.000000,1201.000000 
M535.852600,892.515686 
	C571.163940,899.027771 606.679810,899.787415 642.309875,895.979858 
	C683.645447,891.562561 722.965149,879.910217 760.165100,861.497559 
	C803.366699,840.114258 840.817383,811.142456 872.659973,774.851379 
	C903.148682,740.103210 926.280884,701.032410 941.615662,657.519531 
	C959.883057,605.685059 966.065186,552.304993 960.002869,497.587769 
	C955.352905,455.618866 943.859375,415.658203 925.132812,377.785370 
	C904.119202,335.287231 875.692871,298.487396 840.368896,266.922028 
	C804.863159,235.194122 764.521362,211.684219 719.634216,196.030350 
	C666.025818,177.335068 611.015015,171.782761 554.662537,178.952179 
	C503.970337,185.401474 456.760437,201.990356 413.313202,228.578018 
	C360.310608,261.013062 318.259552,304.410706 287.235046,358.412537 
	C258.813843,407.883026 243.523621,461.222778 240.220322,518.000366 
	C238.649506,545.000122 240.408966,571.907837 245.055618,598.611145 
	C257.087402,667.755127 287.038574,728.128296 333.974762,780.111633 
	C360.196655,809.153198 390.547150,833.161743 424.616760,852.407349 
	C459.159302,871.920044 496.004822,885.134583 535.852600,892.515686 
M593.390747,1001.780457 
	C593.586792,995.988892 594.204468,990.174744 593.896729,984.410095 
	C593.096802,969.425720 583.998779,959.274231 569.412231,956.472839 
	C551.784424,953.087463 536.777466,960.746765 531.047852,976.468445 
	C527.913757,985.068420 527.834595,994.113342 529.529114,1003.009949 
	C532.099548,1016.505005 539.838928,1024.170044 553.269287,1026.513672 
	C557.635010,1027.275513 562.241455,1027.154297 566.693787,1026.830688 
	C580.695679,1025.812744 590.744751,1016.476746 593.390747,1001.780457 
M400.974335,1009.243164 
	C400.722900,998.612610 400.313263,987.981995 400.323334,977.351685 
	C400.326111,974.434937 401.335999,971.432922 402.312256,968.618713 
	C405.949860,958.133118 415.592224,955.721924 423.351135,963.593750 
	C426.571167,966.860657 428.854767,971.048767 431.578613,974.807434 
	C432.651306,976.287720 433.763336,977.739441 434.857513,979.204163 
	C435.204956,979.035095 435.552399,978.866028 435.899841,978.696960 
	C435.899841,971.645508 435.899841,964.594116 435.899841,959.099487 
	C429.939728,958.090027 425.068848,957.335083 420.225433,956.432556 
	C399.622406,952.593689 383.277344,963.085815 379.718689,983.498169 
	C378.521271,990.366699 378.876862,997.938110 380.481995,1004.724854 
	C381.740784,1010.047241 385.167633,1015.525757 389.130859,1019.401367 
	C397.569122,1027.653076 408.576416,1027.820190 419.614655,1026.472168 
	C425.838440,1025.711914 431.874573,1021.564636 439.006989,1026.578003 
	C439.006989,1021.000183 438.751404,1016.527344 439.072693,1012.096436 
	C439.460907,1006.742126 436.619720,1000.559753 443.133942,996.681519 
	C437.079956,994.089233 416.674561,994.847046 413.829102,998.096741 
	C421.922058,998.019409 419.950256,1003.668579 420.048981,1008.173584 
	C420.103729,1010.671936 420.442291,1013.251892 419.950958,1015.651306 
	C419.395844,1018.362244 418.783142,1022.137390 416.893097,1023.263123 
	C413.507080,1025.279785 409.041718,1024.535767 406.560089,1021.070068 
	C404.207397,1017.784241 402.871216,1013.770569 400.974335,1009.243164 
M602.280518,985.253662 
	C606.137024,997.114624 610.446045,1008.854309 613.671509,1020.884460 
	C615.461548,1027.561035 619.989624,1025.537598 624.113647,1026.062012 
	C628.497009,1026.619385 630.215393,1024.667114 631.267944,1020.618652 
	C633.035522,1013.820496 635.417847,1007.182190 637.541626,1000.476624 
	C637.968811,1000.503967 638.396057,1000.531311 638.823303,1000.558716 
	C640.385864,1005.916504 641.903320,1011.288025 643.520508,1016.629272 
	C646.850891,1027.628906 644.028076,1025.668701 656.018005,1026.084717 
	C659.577454,1026.208130 661.014221,1024.864624 661.821594,1021.590149 
	C664.407776,1011.100525 667.079102,1000.626160 670.037964,990.237183 
	C671.079285,986.580872 673.046143,983.188110 674.547180,979.773315 
	C671.229736,979.773315 666.878357,979.773315 662.526978,979.773315 
	C662.500427,980.154236 662.473938,980.535156 662.447388,980.916016 
	C664.218140,981.483948 665.988892,982.051941 668.269409,982.783386 
	C665.906555,991.753479 663.608398,1000.477661 661.310303,1009.201843 
	C658.226562,1002.179199 656.140747,995.229919 654.514343,988.174744 
	C653.920532,985.599182 654.418701,982.771912 654.418701,979.602173 
	C647.256409,979.602173 638.901367,979.602173 629.838379,979.602173 
	C637.638489,986.246277 637.192078,999.786377 629.249878,1009.794556 
	C626.776184,1000.563416 624.387939,991.651062 622.018433,982.808716 
	C623.964966,981.962158 625.378479,981.347473 626.791931,980.732727 
	C626.735229,980.376892 626.678528,980.020996 626.621887,979.665161 
	C616.865906,979.665161 607.109985,979.665161 596.826599,979.665161 
	C598.907837,981.599609 600.471924,983.053406 602.280518,985.253662 
M753.195862,1025.446533 
	C752.078186,1023.244995 750.107788,1021.084961 749.998169,1018.834290 
	C749.625977,1011.196045 749.734314,1003.518555 750.040710,995.871338 
	C750.150146,993.140381 750.863831,990.174377 752.209473,987.838684 
	C753.190430,986.136047 755.659546,985.290894 757.465271,984.063477 
	C758.313965,985.866211 759.834778,987.646362 759.896179,989.475525 
	C760.175293,997.791443 760.257263,1006.128784 759.960510,1014.442322 
	C759.830811,1018.076111 758.623535,1021.671509 757.873413,1025.445923 
	C765.864502,1025.445923 775.073547,1025.445923 784.282654,1025.445923 
	C777.174866,1023.376099 779.130249,1017.792236 779.073853,1013.183167 
	C778.986267,1006.024780 779.145447,998.861816 778.968872,991.706482 
	C778.760498,983.261658 773.476990,978.333618 765.024841,977.949768 
	C759.426758,977.695496 754.544373,978.984741 750.155762,983.967224 
	C750.234192,979.179871 747.761902,978.827698 744.605530,978.941589 
	C739.284485,979.133606 733.950989,978.955444 728.624329,979.036499 
	C727.535828,979.053040 726.454285,979.526123 724.566162,979.983154 
	C730.306091,983.097412 730.310059,983.097412 730.312927,989.190735 
	C730.316772,997.515564 730.350342,1005.840637 730.298584,1014.165100 
	C730.272461,1018.374756 731.802185,1023.350037 724.654419,1024.416504 
	C724.941284,1024.883911 725.228149,1025.351196 725.515015,1025.818481 
	C734.508545,1025.818481 743.502014,1025.818481 753.195862,1025.446533 
M501.887665,983.500000 
	C501.887451,974.834045 501.728333,966.163818 501.957977,957.503967 
	C502.063507,953.525574 501.019592,951.691162 496.683868,951.971924 
	C491.705139,952.294312 486.688934,952.003845 481.690308,952.073914 
	C480.213257,952.094604 478.740662,952.434387 477.265991,952.627869 
	C477.021973,953.038757 476.777954,953.449646 476.533905,953.860535 
	C483.895935,954.619812 482.344116,959.674561 482.354309,963.891479 
	C482.393372,980.056702 482.431580,996.222534 482.330994,1012.387268 
	C482.301788,1017.082336 484.380585,1022.729431 477.684052,1025.335205 
	C487.330933,1025.335205 496.977814,1025.335205 506.624695,1025.335205 
	C500.862732,1023.480164 501.845398,1019.057617 501.868713,1014.997375 
	C501.926941,1004.831909 501.887573,994.665833 501.887665,983.500000 
M701.631836,1001.001282 
	C707.285950,1000.998840 712.952454,1001.197754 718.585327,1000.850281 
	C719.966248,1000.765076 722.221863,999.034302 722.395020,997.820374 
	C723.355835,991.083801 719.067261,983.350769 713.209534,980.315979 
	C696.867126,971.849243 677.274292,981.824585 675.375977,999.933777 
	C674.371582,1009.515564 676.732788,1018.222656 685.744934,1023.632935 
	C694.125732,1028.664185 708.789673,1028.379272 715.705933,1023.048706 
	C719.401062,1020.200745 721.931519,1016.631165 721.096497,1011.508911 
	C719.167114,1013.305176 717.945496,1015.517944 716.484131,1017.559082 
	C713.262695,1022.058411 708.790771,1023.873535 703.407959,1022.722900 
	C698.465454,1021.666382 696.600342,1017.827332 695.881104,1013.257935 
	C695.546387,1011.131226 695.317017,1008.988159 695.004272,1006.857727 
	C694.354858,1002.432983 695.943481,1000.200928 701.631836,1001.001282 
M817.972961,996.434937 
	C812.354858,994.427307 806.650208,992.623047 801.170776,990.289734 
	C799.495911,989.576599 797.122620,987.076599 797.399048,985.984680 
	C797.850769,984.200317 799.959229,982.193237 801.816467,981.525452 
	C807.717041,979.403870 814.312256,982.670654 818.119629,989.042542 
	C818.999084,990.514343 819.857544,991.998596 820.725708,993.477112 
	C821.130554,993.354736 821.535339,993.232422 821.940186,993.110046 
	C821.940186,988.168335 821.940186,983.226685 821.940186,979.234802 
	C818.394531,979.234802 815.586487,979.378906 812.799316,979.199402 
	C809.018188,978.955933 805.211731,977.915100 801.489563,978.194763 
	C793.860474,978.767761 788.474792,984.355347 787.294861,992.038940 
	C786.206360,999.126709 789.601501,1005.651001 796.465332,1008.578186 
	C800.878601,1010.460327 805.751526,1011.293945 810.094604,1013.299072 
	C812.307739,1014.320679 813.806519,1016.889648 815.628235,1018.759277 
	C813.395142,1020.471924 811.380676,1023.153320 808.888000,1023.715881 
	C801.368408,1025.412720 795.004761,1021.483521 791.263672,1013.796814 
	C790.483582,1012.194092 789.620789,1010.631592 788.796143,1009.050537 
	C788.432983,1009.203613 788.069885,1009.356628 787.706726,1009.509705 
	C787.706726,1015.222412 787.706726,1020.935120 787.706726,1027.979980 
	C791.562683,1023.388306 794.872803,1024.393066 798.710632,1025.761475 
	C801.883118,1026.892700 805.554321,1026.963379 808.998291,1026.925903 
	C816.630493,1026.843140 822.332458,1022.778687 824.378235,1016.432373 
	C826.883545,1008.660767 824.835022,1001.727051 817.972961,996.434937 
M470.887665,1007.495850 
	C470.887756,1001.510376 470.887848,995.524963 470.887848,989.539490 
	C470.887848,978.992126 470.887848,978.992249 460.377197,978.993103 
	C455.712799,978.993469 451.048370,978.993164 446.383972,978.993164 
	C446.162018,979.477661 445.940063,979.962097 445.718140,980.446594 
	C452.956146,981.854065 451.332031,987.106506 451.357574,991.596680 
	C451.401093,999.244507 451.405151,1006.893005 451.355316,1014.540710 
	C451.328583,1018.638000 452.752472,1023.495056 446.542297,1025.310547 
	C456.226990,1025.310547 465.911713,1025.310547 475.596405,1025.310547 
	C470.182373,1023.546631 470.718292,1019.441162 470.871429,1015.476074 
	C470.961182,1013.151855 470.887482,1010.821350 470.887665,1007.495850 
M451.272980,961.116821 
	C450.810791,968.375244 453.270691,972.217834 458.840240,972.937439 
	C465.752319,973.830566 470.068298,971.176941 471.263336,965.299316 
	C472.294708,960.226807 470.129578,956.097473 465.552917,954.589966 
	C460.473145,952.916748 452.931793,954.413269 451.272980,961.116821 
z"/>
<path fill="#F3F3F3" opacity="1.000000" stroke="none" 
	d="
M535.435364,892.415771 
	C496.004822,885.134583 459.159302,871.920044 424.616760,852.407349 
	C390.547150,833.161743 360.196655,809.153198 333.974762,780.111633 
	C287.038574,728.128296 257.087402,667.755127 245.055618,598.611145 
	C240.408966,571.907837 238.649506,545.000122 240.220322,518.000366 
	C243.523621,461.222778 258.813843,407.883026 287.235046,358.412537 
	C318.259552,304.410706 360.310608,261.013062 413.313202,228.578018 
	C456.760437,201.990356 503.970337,185.401474 554.662537,178.952179 
	C611.015015,171.782761 666.025818,177.335068 719.634216,196.030350 
	C764.521362,211.684219 804.863159,235.194122 840.368896,266.922028 
	C875.692871,298.487396 904.119202,335.287231 925.132812,377.785370 
	C943.859375,415.658203 955.352905,455.618866 960.002869,497.587769 
	C966.065186,552.304993 959.883057,605.685059 941.615662,657.519531 
	C926.280884,701.032410 903.148682,740.103210 872.659973,774.851379 
	C840.817383,811.142456 803.366699,840.114258 760.165100,861.497559 
	C722.965149,879.910217 683.645447,891.562561 642.309875,895.979858 
	C606.679810,899.787415 571.163940,899.027771 535.435364,892.415771 
M289.254547,703.250671 
	C305.033905,732.245850 324.247467,758.744934 347.180298,782.496887 
	C379.757996,816.238403 417.626526,842.359070 460.590210,861.191467 
	C499.161133,878.098328 539.548523,887.428955 581.466980,889.838745 
	C608.462830,891.390686 635.377014,889.719727 662.082153,885.019226 
	C706.764648,877.154236 748.369446,861.273071 786.861511,837.333740 
	C817.777100,818.106445 845.060608,794.639771 868.832764,766.982727 
	C893.049011,738.808838 912.633423,707.774170 926.806396,673.516968 
	C948.288635,621.592468 957.303528,567.561890 953.210999,511.317871 
	C950.772522,477.805634 943.703674,445.383972 931.943909,414.064453 
	C912.424011,362.077606 882.495789,316.894653 841.682556,279.024475 
	C818.833313,257.822876 793.792419,239.740631 766.250122,225.168472 
	C721.136292,201.299484 673.160217,187.822540 622.124573,184.734756 
	C584.344849,182.448975 547.175964,185.920761 510.766022,195.707886 
	C446.024933,213.110535 390.505554,246.275208 344.245056,294.983276 
	C316.158936,324.555420 294.132568,358.106415 277.677185,395.248657 
	C261.218201,432.399078 251.472382,471.327606 248.804825,511.999969 
	C247.108765,537.860046 247.635925,563.610596 251.599274,589.205811 
	C257.766907,629.036438 270.045654,666.915222 289.254547,703.250671 
z"/>
<path fill="#F4F4F4" opacity="1.000000" stroke="none" 
	d="
M593.284912,1002.194092 
	C590.744751,1016.476746 580.695679,1025.812744 566.693787,1026.830688 
	C562.241455,1027.154297 557.635010,1027.275513 553.269287,1026.513672 
	C539.838928,1024.170044 532.099548,1016.505005 529.529114,1003.009949 
	C527.834595,994.113342 527.913757,985.068420 531.047852,976.468445 
	C536.777466,960.746765 551.784424,953.087463 569.412231,956.472839 
	C583.998779,959.274231 593.096802,969.425720 593.896729,984.410095 
	C594.204468,990.174744 593.586792,995.988892 593.284912,1002.194092 
M573.081177,1002.440491 
	C572.750793,991.172913 572.885498,979.865051 571.915405,968.652832 
	C571.334717,961.941956 567.523254,959.157532 561.856140,959.020325 
	C555.945007,958.877075 551.841980,961.694336 551.063171,968.453186 
	C549.890015,978.634888 549.487915,988.946106 549.465149,999.203857 
	C549.452026,1005.106567 550.396790,1011.112000 551.717896,1016.886353 
	C552.838989,1021.786499 556.706787,1024.107788 561.840454,1023.988159 
	C566.797974,1023.872742 570.170227,1021.418457 571.238708,1016.660706 
	C572.211731,1012.328125 572.480896,1007.837524 573.081177,1002.440491 
z"/>
<path fill="#F4F4F4" opacity="1.000000" stroke="none" 
	d="
M401.031189,1009.660034 
	C402.871216,1013.770569 404.207397,1017.784241 406.560089,1021.070068 
	C409.041718,1024.535767 413.507080,1025.279785 416.893097,1023.263123 
	C418.783142,1022.137390 419.395844,1018.362244 419.950958,1015.651306 
	C420.442291,1013.251892 420.103729,1010.671936 420.048981,1008.173584 
	C419.950256,1003.668579 421.922058,998.019409 413.829102,998.096741 
	C416.674561,994.847046 437.079956,994.089233 443.133942,996.681519 
	C436.619720,1000.559753 439.460907,1006.742126 439.072693,1012.096436 
	C438.751404,1016.527344 439.006989,1021.000183 439.006989,1026.578003 
	C431.874573,1021.564636 425.838440,1025.711914 419.614655,1026.472168 
	C408.576416,1027.820190 397.569122,1027.653076 389.130859,1019.401367 
	C385.167633,1015.525757 381.740784,1010.047241 380.481995,1004.724854 
	C378.876862,997.938110 378.521271,990.366699 379.718689,983.498169 
	C383.277344,963.085815 399.622406,952.593689 420.225433,956.432556 
	C425.068848,957.335083 429.939728,958.090027 435.899841,959.099487 
	C435.899841,964.594116 435.899841,971.645508 435.899841,978.696960 
	C435.552399,978.866028 435.204956,979.035095 434.857513,979.204163 
	C433.763336,977.739441 432.651306,976.287720 431.578613,974.807434 
	C428.854767,971.048767 426.571167,966.860657 423.351135,963.593750 
	C415.592224,955.721924 405.949860,958.133118 402.312256,968.618713 
	C401.335999,971.432922 400.326111,974.434937 400.323334,977.351685 
	C400.313263,987.981995 400.722900,998.612610 401.031189,1009.660034 
z"/>
<path fill="#F4F4F4" opacity="1.000000" stroke="none" 
	d="
M602.158325,984.880432 
	C600.471924,983.053406 598.907837,981.599609 596.826599,979.665161 
	C607.109985,979.665161 616.865906,979.665161 626.621887,979.665161 
	C626.678528,980.020996 626.735229,980.376892 626.791931,980.732727 
	C625.378479,981.347473 623.964966,981.962158 622.018433,982.808716 
	C624.387939,991.651062 626.776184,1000.563416 629.249878,1009.794556 
	C637.192078,999.786377 637.638489,986.246277 629.838379,979.602173 
	C638.901367,979.602173 647.256409,979.602173 654.418701,979.602173 
	C654.418701,982.771912 653.920532,985.599182 654.514343,988.174744 
	C656.140747,995.229919 658.226562,1002.179199 661.310303,1009.201843 
	C663.608398,1000.477661 665.906555,991.753479 668.269409,982.783386 
	C665.988892,982.051941 664.218140,981.483948 662.447388,980.916016 
	C662.473938,980.535156 662.500427,980.154236 662.526978,979.773315 
	C666.878357,979.773315 671.229736,979.773315 674.547180,979.773315 
	C673.046143,983.188110 671.079285,986.580872 670.037964,990.237183 
	C667.079102,1000.626160 664.407776,1011.100525 661.821594,1021.590149 
	C661.014221,1024.864624 659.577454,1026.208130 656.018005,1026.084717 
	C644.028076,1025.668701 646.850891,1027.628906 643.520508,1016.629272 
	C641.903320,1011.288025 640.385864,1005.916504 638.823303,1000.558716 
	C638.396057,1000.531311 637.968811,1000.503967 637.541626,1000.476624 
	C635.417847,1007.182190 633.035522,1013.820496 631.267944,1020.618652 
	C630.215393,1024.667114 628.497009,1026.619385 624.113647,1026.062012 
	C619.989624,1025.537598 615.461548,1027.561035 613.671509,1020.884460 
	C610.446045,1008.854309 606.137024,997.114624 602.158325,984.880432 
z"/>
<path fill="#F4F4F4" opacity="1.000000" stroke="none" 
	d="
M752.845703,1025.632568 
	C743.502014,1025.818481 734.508545,1025.818481 725.515015,1025.818481 
	C725.228149,1025.351196 724.941284,1024.883911 724.654419,1024.416504 
	C731.802185,1023.350037 730.272461,1018.374756 730.298584,1014.165100 
	C730.350342,1005.840637 730.316772,997.515564 730.312927,989.190735 
	C730.310059,983.097412 730.306091,983.097412 724.566162,979.983154 
	C726.454285,979.526123 727.535828,979.053040 728.624329,979.036499 
	C733.950989,978.955444 739.284485,979.133606 744.605530,978.941589 
	C747.761902,978.827698 750.234192,979.179871 750.155762,983.967224 
	C754.544373,978.984741 759.426758,977.695496 765.024841,977.949768 
	C773.476990,978.333618 778.760498,983.261658 778.968872,991.706482 
	C779.145447,998.861816 778.986267,1006.024780 779.073853,1013.183167 
	C779.130249,1017.792236 777.174866,1023.376099 784.282654,1025.445923 
	C775.073547,1025.445923 765.864502,1025.445923 757.873413,1025.445923 
	C758.623535,1021.671509 759.830811,1018.076111 759.960510,1014.442322 
	C760.257263,1006.128784 760.175293,997.791443 759.896179,989.475525 
	C759.834778,987.646362 758.313965,985.866211 757.465271,984.063477 
	C755.659546,985.290894 753.190430,986.136047 752.209473,987.838684 
	C750.863831,990.174377 750.150146,993.140381 750.040710,995.871338 
	C749.734314,1003.518555 749.625977,1011.196045 749.998169,1018.834290 
	C750.107788,1021.084961 752.078186,1023.244995 752.845703,1025.632568 
z"/>
<path fill="#F4F4F4" opacity="1.000000" stroke="none" 
	d="
M501.887512,984.000000 
	C501.887573,994.665833 501.926941,1004.831909 501.868713,1014.997375 
	C501.845398,1019.057617 500.862732,1023.480164 506.624695,1025.335205 
	C496.977814,1025.335205 487.330933,1025.335205 477.684052,1025.335205 
	C484.380585,1022.729431 482.301788,1017.082336 482.330994,1012.387268 
	C482.431580,996.222534 482.393372,980.056702 482.354309,963.891479 
	C482.344116,959.674561 483.895935,954.619812 476.533905,953.860535 
	C476.777954,953.449646 477.021973,953.038757 477.265991,952.627869 
	C478.740662,952.434387 480.213257,952.094604 481.690308,952.073914 
	C486.688934,952.003845 491.705139,952.294312 496.683868,951.971924 
	C501.019592,951.691162 502.063507,953.525574 501.957977,957.503967 
	C501.728333,966.163818 501.887451,974.834045 501.887512,984.000000 
z"/>
<path fill="#F4F4F4" opacity="1.000000" stroke="none" 
	d="
M701.154114,1001.001465 
	C695.943481,1000.200928 694.354858,1002.432983 695.004272,1006.857727 
	C695.317017,1008.988159 695.546387,1011.131226 695.881104,1013.257935 
	C696.600342,1017.827332 698.465454,1021.666382 703.407959,1022.722900 
	C708.790771,1023.873535 713.262695,1022.058411 716.484131,1017.559082 
	C717.945496,1015.517944 719.167114,1013.305176 721.096497,1011.508911 
	C721.931519,1016.631165 719.401062,1020.200745 715.705933,1023.048706 
	C708.789673,1028.379272 694.125732,1028.664185 685.744934,1023.632935 
	C676.732788,1018.222656 674.371582,1009.515564 675.375977,999.933777 
	C677.274292,981.824585 696.867126,971.849243 713.209534,980.315979 
	C719.067261,983.350769 723.355835,991.083801 722.395020,997.820374 
	C722.221863,999.034302 719.966248,1000.765076 718.585327,1000.850281 
	C712.952454,1001.197754 707.285950,1000.998840 701.154114,1001.001465 
M703.658020,996.975586 
	C703.577026,992.713562 703.724854,988.426453 703.263550,984.205994 
	C703.139099,983.067688 701.192749,981.355896 700.034851,981.316589 
	C698.836060,981.275879 697.055298,982.698120 696.469604,983.928223 
	C695.575012,985.807068 695.279480,988.052490 695.095825,990.173950 
	C694.401123,998.198242 694.976379,998.688843 703.658020,996.975586 
z"/>
<path fill="#F4F4F4" opacity="1.000000" stroke="none" 
	d="
M818.281250,996.636597 
	C824.835022,1001.727051 826.883545,1008.660767 824.378235,1016.432373 
	C822.332458,1022.778687 816.630493,1026.843140 808.998291,1026.925903 
	C805.554321,1026.963379 801.883118,1026.892700 798.710632,1025.761475 
	C794.872803,1024.393066 791.562683,1023.388306 787.706726,1027.979980 
	C787.706726,1020.935120 787.706726,1015.222412 787.706726,1009.509705 
	C788.069885,1009.356628 788.432983,1009.203613 788.796143,1009.050537 
	C789.620789,1010.631592 790.483582,1012.194092 791.263672,1013.796814 
	C795.004761,1021.483521 801.368408,1025.412720 808.888000,1023.715881 
	C811.380676,1023.153320 813.395142,1020.471924 815.628174,1018.759277 
	C813.806519,1016.889648 812.307739,1014.320679 810.094604,1013.299072 
	C805.751526,1011.293945 800.878601,1010.460327 796.465332,1008.578186 
	C789.601501,1005.651001 786.206360,999.126709 787.294861,992.038940 
	C788.474792,984.355347 793.860474,978.767761 801.489563,978.194763 
	C805.211731,977.915100 809.018188,978.955933 812.799316,979.199402 
	C815.586487,979.378906 818.394531,979.234802 821.940186,979.234802 
	C821.940186,983.226685 821.940186,988.168335 821.940186,993.110046 
	C821.535339,993.232422 821.130554,993.354736 820.725708,993.477112 
	C819.857544,991.998596 818.999084,990.514343 818.119629,989.042542 
	C814.312256,982.670654 807.717041,979.403870 801.816467,981.525452 
	C799.959229,982.193237 797.850769,984.200317 797.399048,985.984680 
	C797.122620,987.076599 799.495911,989.576599 801.170776,990.289734 
	C806.650208,992.623047 812.354858,994.427307 818.281250,996.636597 
z"/>
<path fill="#F4F4F4" opacity="1.000000" stroke="none" 
	d="
M470.887512,1007.994751 
	C470.887482,1010.821350 470.961182,1013.151855 470.871429,1015.476074 
	C470.718292,1019.441162 470.182373,1023.546631 475.596405,1025.310547 
	C465.911713,1025.310547 456.226990,1025.310547 446.542297,1025.310547 
	C452.752472,1023.495056 451.328583,1018.638000 451.355316,1014.540710 
	C451.405151,1006.893005 451.401093,999.244507 451.357574,991.596680 
	C451.332031,987.106506 452.956146,981.854065 445.718140,980.446594 
	C445.940063,979.962097 446.162018,979.477661 446.383972,978.993164 
	C451.048370,978.993164 455.712799,978.993469 460.377197,978.993103 
	C470.887848,978.992249 470.887848,978.992126 470.887848,989.539490 
	C470.887848,995.524963 470.887756,1001.510376 470.887512,1007.994751 
z"/>
<path fill="#F4F4F4" opacity="1.000000" stroke="none" 
	d="
M451.387390,960.736511 
	C452.931793,954.413269 460.473145,952.916748 465.552917,954.589966 
	C470.129578,956.097473 472.294708,960.226807 471.263336,965.299316 
	C470.068298,971.176941 465.752319,973.830566 458.840240,972.937439 
	C453.270691,972.217834 450.810791,968.375244 451.387390,960.736511 
z"/>
<path fill="#ABB1BC" opacity="1.000000" stroke="none" 
	d="
M289.088593,702.921387 
	C270.045654,666.915222 257.766907,629.036438 251.599274,589.205811 
	C247.635925,563.610596 247.108765,537.860046 248.804825,511.999969 
	C251.472382,471.327606 261.218201,432.399078 277.677185,395.248657 
	C294.132568,358.106415 316.158936,324.555420 344.245056,294.983276 
	C390.505554,246.275208 446.024933,213.110535 510.766022,195.707886 
	C547.175964,185.920761 584.344849,182.448975 622.124573,184.734756 
	C673.160217,187.822540 721.136292,201.299484 766.250122,225.168472 
	C793.792419,239.740631 818.833313,257.822876 841.682556,279.024475 
	C882.495789,316.894653 912.424011,362.077606 931.943909,414.064453 
	C943.703674,445.383972 950.772522,477.805634 953.210999,511.317871 
	C957.303528,567.561890 948.288635,621.592468 926.806396,673.516968 
	C912.633423,707.774170 893.049011,738.808838 868.832764,766.982727 
	C845.060608,794.639771 817.777100,818.106445 786.861511,837.333740 
	C748.369446,861.273071 706.764648,877.154236 662.082153,885.019226 
	C635.377014,889.719727 608.462830,891.390686 581.466980,889.838745 
	C539.548523,887.428955 499.161133,878.098328 460.590210,861.191467 
	C417.626526,842.359070 379.757996,816.238403 347.180298,782.496887 
	C324.247467,758.744934 305.033905,732.245850 289.088593,702.921387 
M744.183289,851.703003 
	C756.663269,845.022644 769.459595,838.866394 781.562134,831.560669 
	C814.079712,811.931213 842.318604,787.215820 866.597656,757.994568 
	C892.952148,726.275208 913.342102,691.058960 926.919006,652.153137 
	C943.313110,605.174438 949.665222,556.839111 945.192993,507.077240 
	C942.323364,475.147919 935.477600,444.201385 924.029602,414.363770 
	C904.926208,364.573486 875.776367,321.481018 836.791321,284.942993 
	C801.354370,251.730347 760.745422,227.160110 715.097656,210.971283 
	C669.076721,194.650131 621.608643,189.058365 572.928711,192.804581 
	C546.710815,194.822189 521.085693,199.759003 496.148621,207.841827 
	C436.681854,227.116791 385.819275,259.939789 344.043335,306.497040 
	C297.111389,358.800415 268.714264,419.854919 258.781555,489.449524 
	C253.538208,526.187561 254.407837,562.802002 261.076141,599.302063 
	C272.945496,664.271301 301.513275,721.076843 345.697815,769.874573 
	C378.201721,805.772156 416.899811,833.465881 461.245728,853.172485 
	C517.662415,878.243225 576.681580,886.884338 637.885925,880.770142 
	C674.625916,877.099976 709.843262,867.308594 744.183289,851.703003 
z"/>
<path fill="#A8AEBA" opacity="1.000000" stroke="none" 
	d="
M573.070679,1002.928528 
	C572.480896,1007.837524 572.211731,1012.328125 571.238708,1016.660706 
	C570.170227,1021.418457 566.797974,1023.872742 561.840454,1023.988159 
	C556.706787,1024.107788 552.838989,1021.786499 551.717896,1016.886353 
	C550.396790,1011.112000 549.452026,1005.106567 549.465149,999.203857 
	C549.487915,988.946106 549.890015,978.634888 551.063171,968.453186 
	C551.841980,961.694336 555.945007,958.877075 561.856140,959.020325 
	C567.523254,959.157532 571.334717,961.941956 571.915405,968.652832 
	C572.885498,979.865051 572.750793,991.172913 573.070679,1002.928528 
z"/>
<path fill="#A8AEBA" opacity="1.000000" stroke="none" 
	d="
M703.346191,997.298889 
	C694.976379,998.688843 694.401123,998.198242 695.095825,990.173950 
	C695.279480,988.052490 695.575012,985.807068 696.469604,983.928223 
	C697.055298,982.698120 698.836060,981.275879 700.034851,981.316589 
	C701.192749,981.355896 703.139099,983.067688 703.263550,984.205994 
	C703.724854,988.426453 703.577026,992.713562 703.346191,997.298889 
z"/>
<path fill="#F3F3F3" opacity="1.000000" stroke="none" 
	d="
M743.829468,851.838379 
	C709.843262,867.308594 674.625916,877.099976 637.885925,880.770142 
	C576.681580,886.884338 517.662415,878.243225 461.245728,853.172485 
	C416.899811,833.465881 378.201721,805.772156 345.697815,769.874573 
	C301.513275,721.076843 272.945496,664.271301 261.076141,599.302063 
	C254.407837,562.802002 253.538208,526.187561 258.781555,489.449524 
	C268.714264,419.854919 297.111389,358.800415 344.043335,306.497040 
	C385.819275,259.939789 436.681854,227.116791 496.148621,207.841827 
	C521.085693,199.759003 546.710815,194.822189 572.928711,192.804581 
	C621.608643,189.058365 669.076721,194.650131 715.097656,210.971283 
	C760.745422,227.160110 801.354370,251.730347 836.791321,284.942993 
	C875.776367,321.481018 904.926208,364.573486 924.029602,414.363770 
	C935.477600,444.201385 942.323364,475.147919 945.192993,507.077240 
	C949.665222,556.839111 943.313110,605.174438 926.919006,652.153137 
	C913.342102,691.058960 892.952148,726.275208 866.597656,757.994568 
	C842.318604,787.215820 814.079712,811.931213 781.562134,831.560669 
	C769.459595,838.866394 756.663269,845.022644 743.829468,851.838379 
M861.657288,322.881287 
	C840.716858,297.539337 816.698730,275.521393 789.409973,257.228729 
	C738.024292,222.782928 681.402771,203.397156 619.570984,200.166840 
	C582.587341,198.234650 545.985596,201.490692 510.306519,212.044434 
	C413.899841,240.561111 342.610962,299.592163 297.776337,389.530731 
	C264.575653,456.131592 255.751434,526.702698 269.445435,599.696289 
	C284.705688,681.038574 325.656464,747.543640 389.381226,799.937927 
	C423.359955,827.875061 461.911072,847.691833 504.013062,860.474548 
	C545.656921,873.118103 588.207214,876.823364 631.499268,873.171570 
	C656.339661,871.076172 680.658081,866.370056 704.304321,858.531067 
	C761.288879,839.639954 810.390564,808.494202 850.788452,763.859497 
	C884.643005,726.454346 909.127502,683.723083 923.877563,635.493835 
	C936.493347,594.243347 940.772705,552.067383 937.260376,509.066711 
	C934.694031,477.648743 927.878235,447.207397 916.688721,417.756592 
	C903.620667,383.361725 885.393188,351.930206 861.657288,322.881287 
z"/>
<path fill="#A8AEBA" opacity="1.000000" stroke="none" 
	d="
M861.885254,323.157166 
	C885.393188,351.930206 903.620667,383.361725 916.688721,417.756592 
	C927.878235,447.207397 934.694031,477.648743 937.260376,509.066711 
	C940.772705,552.067383 936.493347,594.243347 923.877563,635.493835 
	C909.127502,683.723083 884.643005,726.454346 850.788452,763.859497 
	C810.390564,808.494202 761.288879,839.639954 704.304321,858.531067 
	C680.658081,866.370056 656.339661,871.076172 631.499268,873.171570 
	C588.207214,876.823364 545.656921,873.118103 504.013062,860.474548 
	C461.911072,847.691833 423.359955,827.875061 389.381226,799.937927 
	C325.656464,747.543640 284.705688,681.038574 269.445435,599.696289 
	C255.751434,526.702698 264.575653,456.131592 297.776337,389.530731 
	C342.610962,299.592163 413.899841,240.561111 510.306519,212.044434 
	C545.985596,201.490692 582.587341,198.234650 619.570984,200.166840 
	C681.402771,203.397156 738.024292,222.782928 789.409973,257.228729 
	C816.698730,275.521393 840.716858,297.539337 861.885254,323.157166 
M617.880676,483.381226 
	C616.579224,486.261749 615.087280,489.072754 614.006348,492.033783 
	C604.781799,517.302368 603.775757,543.187134 609.505859,569.221985 
	C615.200073,595.094055 629.389282,614.589233 655.114075,623.743042 
	C675.500854,630.997437 696.487610,631.601379 717.652466,627.303223 
	C747.093689,621.324341 766.664978,604.110291 775.283813,575.355530 
	C783.463806,548.064758 783.437134,520.452759 774.961792,493.214111 
	C767.247070,468.420105 750.907104,451.745239 725.645081,444.529114 
	C710.367920,440.165131 694.766296,439.894836 679.118469,441.966705 
	C652.154602,445.536926 631.210693,458.232147 617.880676,483.381226 
M530.855530,613.936157 
	C529.630371,618.890930 526.130066,621.790344 521.451843,622.538391 
	C508.890961,624.546936 498.321777,623.698486 489.310455,610.962830 
	C479.806274,597.530518 476.899567,581.828979 476.223083,566.011108 
	C475.335449,545.256958 475.527069,524.421326 476.179718,503.649841 
	C476.582092,490.844421 479.231598,478.235901 484.969299,466.500763 
	C494.665070,446.670380 516.108582,440.626953 533.870483,453.710999 
	C540.829773,458.837494 546.810364,465.734436 551.957825,472.761780 
	C557.826477,480.773743 562.161621,489.897400 567.441345,498.364471 
	C568.258728,499.675293 570.516418,500.225830 572.226746,500.697937 
	C572.492310,500.771210 573.956421,498.510101 573.923218,497.355682 
	C573.439514,480.552582 572.822327,463.752960 572.128418,446.957001 
	C572.081787,445.826935 571.165894,444.732788 570.654297,443.621887 
	C569.568298,444.228241 568.534485,444.969116 567.385925,445.414093 
	C564.658020,446.471008 561.901794,448.071014 559.108582,448.177002 
	C556.058960,448.292755 552.916748,447.108521 549.880676,446.256348 
	C531.884399,441.204987 513.626770,439.327301 495.060211,441.963745 
	C460.865265,446.819458 437.752808,465.273438 426.804504,498.292969 
	C420.338806,517.793030 419.576019,537.861877 422.281219,558.006836 
	C424.669678,575.792664 430.412292,592.485718 443.349976,605.590637 
	C464.114319,626.623535 490.530670,631.343445 518.422180,629.178467 
	C531.063049,628.197388 543.435364,623.994202 555.989685,621.563782 
	C562.883362,620.229309 569.906006,619.155884 575.426270,625.593079 
	C576.341858,626.660706 578.529724,626.637329 581.001953,627.380249 
	C581.001953,624.437866 581.002014,622.479492 581.002014,620.521179 
	C581.002075,600.530457 581.001099,580.539734 581.002747,560.549011 
	C581.003357,553.734985 581.025879,553.876526 587.631226,552.960938 
	C588.877991,552.788086 589.899536,550.990112 591.024963,549.942078 
	C589.867188,548.917175 588.716125,547.007141 587.550598,546.998230 
	C564.562744,546.822388 541.572815,546.822327 518.584961,546.997925 
	C517.422852,547.006775 516.275269,548.917725 515.120911,549.943054 
	C516.257690,550.991760 517.283875,552.747864 518.553650,552.946411 
	C521.481873,553.404358 524.541443,553.285522 527.523560,553.068481 
	C531.088867,552.808838 532.106750,554.333435 532.054749,557.733093 
	C531.894287,568.225708 532.123230,578.724487 531.956848,589.216919 
	C531.830383,597.188232 531.331299,605.153687 530.855530,613.936157 
z"/>
<path fill="#F4F4F5" opacity="1.000000" stroke="none" 
	d="
M618.029053,483.041443 
	C631.210693,458.232147 652.154602,445.536926 679.118469,441.966705 
	C694.766296,439.894836 710.367920,440.165131 725.645081,444.529114 
	C750.907104,451.745239 767.247070,468.420105 774.961792,493.214111 
	C783.437134,520.452759 783.463806,548.064758 775.283813,575.355530 
	C766.664978,604.110291 747.093689,621.324341 717.652466,627.303223 
	C696.487610,631.601379 675.500854,630.997437 655.114075,623.743042 
	C629.389282,614.589233 615.200073,595.094055 609.505859,569.221985 
	C603.775757,543.187134 604.781799,517.302368 614.006348,492.033783 
	C615.087280,489.072754 616.579224,486.261749 618.029053,483.041443 
M689.161621,447.382751 
	C675.551392,448.896576 667.822937,457.187927 665.156189,469.883240 
	C663.014832,480.076965 661.459412,490.553650 661.181519,500.945892 
	C660.589905,523.071228 660.688599,545.229553 661.138245,567.361511 
	C661.336365,577.113525 662.459351,586.952698 664.290588,596.536804 
	C666.263733,606.863892 670.183594,616.911926 681.175781,620.816284 
	C697.398743,626.578613 715.592896,623.488403 721.631714,601.565613 
	C722.160950,599.644226 722.789490,597.711182 722.989563,595.744690 
	C724.064331,585.179138 725.855652,574.600952 725.852661,564.027649 
	C725.844543,535.269104 727.659973,506.456879 724.028687,477.763153 
	C721.248901,455.797211 710.264465,445.843140 689.161621,447.382751 
z"/>
<path fill="#F4F4F5" opacity="1.000000" stroke="none" 
	d="
M530.926758,613.528931 
	C531.331299,605.153687 531.830383,597.188232 531.956848,589.216919 
	C532.123230,578.724487 531.894287,568.225708 532.054749,557.733093 
	C532.106750,554.333435 531.088867,552.808838 527.523560,553.068481 
	C524.541443,553.285522 521.481873,553.404358 518.553650,552.946411 
	C517.283875,552.747864 516.257690,550.991760 515.120911,549.943054 
	C516.275269,548.917725 517.422852,547.006775 518.584961,546.997925 
	C541.572815,546.822327 564.562744,546.822388 587.550598,546.998230 
	C588.716125,547.007141 589.867188,548.917175 591.024963,549.942078 
	C589.899536,550.990112 588.877991,552.788086 587.631226,552.960938 
	C581.025879,553.876526 581.003357,553.734985 581.002747,560.549011 
	C581.001099,580.539734 581.002075,600.530457 581.002014,620.521179 
	C581.002014,622.479492 581.001953,624.437866 581.001953,627.380249 
	C578.529724,626.637329 576.341858,626.660706 575.426270,625.593079 
	C569.906006,619.155884 562.883362,620.229309 555.989685,621.563782 
	C543.435364,623.994202 531.063049,628.197388 518.422180,629.178467 
	C490.530670,631.343445 464.114319,626.623535 443.349976,605.590637 
	C430.412292,592.485718 424.669678,575.792664 422.281219,558.006836 
	C419.576019,537.861877 420.338806,517.793030 426.804504,498.292969 
	C437.752808,465.273438 460.865265,446.819458 495.060211,441.963745 
	C513.626770,439.327301 531.884399,441.204987 549.880676,446.256348 
	C552.916748,447.108521 556.058960,448.292755 559.108582,448.177002 
	C561.901794,448.071014 564.658020,446.471008 567.385925,445.414093 
	C568.534485,444.969116 569.568298,444.228241 570.654297,443.621887 
	C571.165894,444.732788 572.081787,445.826935 572.128418,446.957001 
	C572.822327,463.752960 573.439514,480.552582 573.923218,497.355682 
	C573.956421,498.510101 572.492310,500.771210 572.226746,500.697937 
	C570.516418,500.225830 568.258728,499.675293 567.441345,498.364471 
	C562.161621,489.897400 557.826477,480.773743 551.957825,472.761780 
	C546.810364,465.734436 540.829773,458.837494 533.870483,453.710999 
	C516.108582,440.626953 494.665070,446.670380 484.969299,466.500763 
	C479.231598,478.235901 476.582092,490.844421 476.179718,503.649841 
	C475.527069,524.421326 475.335449,545.256958 476.223083,566.011108 
	C476.899567,581.828979 479.806274,597.530518 489.310455,610.962830 
	C498.321777,623.698486 508.890961,624.546936 521.451843,622.538391 
	C526.130066,621.790344 529.630371,618.890930 530.926758,613.528931 
z"/>
<path fill="#A8AEBA" opacity="1.000000" stroke="none" 
	d="
M689.593811,447.308441 
	C710.264465,445.843140 721.248901,455.797211 724.028687,477.763153 
	C727.659973,506.456879 725.844543,535.269104 725.852661,564.027649 
	C725.855652,574.600952 724.064331,585.179138 722.989563,595.744690 
	C722.789490,597.711182 722.160950,599.644226 721.631714,601.565613 
	C715.592896,623.488403 697.398743,626.578613 681.175781,620.816284 
	C670.183594,616.911926 666.263733,606.863892 664.290588,596.536804 
	C662.459351,586.952698 661.336365,577.113525 661.138245,567.361511 
	C660.688599,545.229553 660.589905,523.071228 661.181519,500.945892 
	C661.459412,490.553650 663.014832,480.076965 665.156189,469.883240 
	C667.822937,457.187927 675.551392,448.896576 689.593811,447.308441 
z"/>
</svg>